<?xml version="1.0" encoding="UTF-8" standalone="no"?>
<!-- Created with Inkscape (http://www.inkscape.org/) -->

<svg
   xmlns:dc="http://purl.org/dc/elements/1.1/"
   xmlns:cc="http://creativecommons.org/ns#"
   xmlns:rdf="http://www.w3.org/1999/02/22-rdf-syntax-ns#"
   xmlns:svg="http://www.w3.org/2000/svg"
   xmlns="http://www.w3.org/2000/svg"
   xmlns:sodipodi="http://sodipodi.sourceforge.net/DTD/sodipodi-0.dtd"
   xmlns:inkscape="http://www.inkscape.org/namespaces/inkscape"
   width="250mm"
   height="250mm"
   viewBox="0 0 250 250"
   version="1.1"
   id="svg1395"
   inkscape:version="0.92.4 (33fec40, 2019-01-16)"
   sodipodi:docname="hole.svg">
  <defs
     id="defs1389">
    <clipPath
       clipPathUnits="userSpaceOnUse"
       id="clipPath2559">
      <rect
         style="fill:#330800;fill-opacity:1"
         id="rect2561"
         width="718.12286"
         height="413.66525"
         x="29.783897"
         y="46.330509" />
    </clipPath>
  </defs>
  <sodipodi:namedview
     id="base"
     pagecolor="#ffffff"
     bordercolor="#666666"
     borderopacity="1.0"
     inkscape:pageopacity="0.0"
     inkscape:pageshadow="2"
     inkscape:zoom="0.35"
     inkscape:cx="-85.714286"
     inkscape:cy="560"
     inkscape:document-units="mm"
     inkscape:current-layer="layer1"
     showgrid="false"
     inkscape:snap-nodes="false"
     inkscape:window-width="1309"
     inkscape:window-height="740"
     inkscape:window-x="57"
     inkscape:window-y="312"
     inkscape:window-maximized="1" />
  <metadata
     id="metadata1392">
    <rdf:RDF>
      <cc:Work
         rdf:about="">
        <dc:format>image/svg+xml</dc:format>
        <dc:type
           rdf:resource="http://purl.org/dc/dcmitype/StillImage" />
        <dc:title></dc:title>
      </cc:Work>
    </rdf:RDF>
  </metadata>
  <g
     inkscape:label="Layer 1"
     inkscape:groupmode="layer"
     id="layer1"
     transform="translate(0,-47)">
    <rect
       style="fill:#338000;fill-opacity:1;stroke-width:0.26823524"
       id="rect1940"
       width="249.46428"
       height="250.22023"
       x="0.7559526"
       y="47.535717" />
    <path
       id="ellipse1944"
       d="m 127.7792,156.98865 a 101.61001,36.206435 0 0 0 -17.86619,0.59603 101.61001,36.206436 0 0 0 -100.7816566,36.19634 101.61001,36.206436 0 0 0 8.0260346,14.08959 101.61001,36.206436 0 0 0 -8.7049698,14.60482 101.61001,36.206436 0 0 0 80.5899088,35.40835 101.61001,36.206435 0 0 0 40.431153,3.03673 101.61001,36.206435 0 0 0 95.09819,-23.57964 101.61001,36.206434 0 0 0 22.12777,-22.55123 101.61001,36.206434 0 0 0 -17.49233,-20.29541 101.61001,36.206435 0 0 0 0.1825,-1.29915 101.61001,36.206435 0 0 0 -101.61041,-36.20643 z"
       style="fill:#330800;fill-opacity:1;stroke-width:0.42466459"
       inkscape:connector-curvature="0" />
  </g>
</svg>
